<svg xmlns="http://www.w3.org/2000/svg" width="263" height="48" fill="none">
  <style>
    #arrows { fill: #3c4c49; }
    #crystal { fill: #486c65; } [data-theme="dark"] #crystal { fill: #4e726b; } [data-theme="dark"] #arrows { fill: #9ac1b8; }
  </style>
  <path id="arrows" fill="#3c4c49" d="M115.023 16h-8l-6 8 6 8h8L99.0234 48V34h-8.3691c.1317-.1231.2611-.2492.3867-.3799Q94.3241 30.2075 94.3242 24c0-4.1383-1.0945-7.3346-3.2832-9.5879A10 10 0 0 0 90.625 14h8.3984V0zM134 14h8.669c-.106.1173-.21.2381-.311.3623-1.827 2.2451-2.741 5.4478-2.741 9.6084q0 6.2407 2.649 9.6084c.115.1449.234.2854.355.4209H134v14l-16-16h8l6-8-6-8h-8l16-16z"/>
  <path id="crystal" fill="#486c65" d="M108.5 20h16l3 4-3 4h-16l-3-4zM74.0737 14h7q4.425 0 6.825 2.625 2.425 2.6 2.425 7.375t-2.425 7.4q-2.4 2.6-6.825 2.6h-7zm7 15.65q2.25 0 3.4-1.425t1.15-4.225-1.15-4.225-3.4-1.425h-2.3v11.3zM57.0015 14h14.25v4h-9.55v4.15h8.3v3.9h-8.3V30h9.3v4h-14zM38.8003 14h8.6q2.125 0 3.725.8 1.625.775 2.5 2.225.875 1.425.875 3.375 0 1.875-.875 3.275-.875 1.375-2.5 2.125-1.6.75-3.725.75h-3.9V34h-4.7zm8.6 8.3q1.15 0 1.775-.475.625-.5.625-1.425t-.625-1.4q-.625-.5-1.775-.5h-3.9v3.8zM27.4004 20.775l.35 1.875h.525l.35-1.875 3.5-6.775h4.75l-6.7 12.6V34h-4.7v-7.4l-6.7-12.6h5.15zM6.075 18.5H0V14h16.85v4.5h-6.075V34h-4.7zM249.247 14.4756h4.476v14.7619h8.619v4.2857h-13.095zM233.038 14.4756h13.571v3.8095h-9.095v3.9524h7.905v3.7143h-7.905v3.7619h8.857v3.8095h-13.333zM215.182 14.4756h7.143l3.523 15.7143h.477l-.239-7.6191v-8.0952h4v19.0476h-7.142l-3.524-15.7143h-.476l.238 7.6191v8.0952h-4zM197.326 14.4756h7.143l3.523 15.7143h.477l-.239-7.6191v-8.0952h4v19.0476h-7.142l-3.524-15.7143h-.476l.238 7.6191v8.0952h-4zM183.112 14.4766h7.619l4.572 19.0476h-4.452l-3.834-16.1905h-.476l-3.833 16.1905h-4.167zm-.952 9.5238h9.524v4.2857h-9.524zM161.994 14.4756h4.476v7.4762h5.572v-7.4762h4.476v19.0476h-4.476v-7.2857h-5.572v7.2857h-4.476zM151.519 34c-2.524 0-4.476-.8651-5.857-2.5952-1.365-1.7302-2.048-4.1984-2.048-7.4048s.707-5.6746 2.119-7.4048Q147.8525 14 151.757 14c1.476 0 2.77.3016 3.881.9048q1.6665.9047 2.619 2.619.9765 1.6905 1.119 4h-4.143c-.238-1.1428-.65-2-1.238-2.5714q-.8565-.8572-2.238-.8572c-1.206 0-2.119.5-2.738 1.5-.619.9842-.929 2.4524-.929 4.4048q0 2.9286.858 4.4286.8805 1.4762 2.571 1.4762c.857 0 1.564-.2699 2.119-.8096.556-.5396.96-1.3333 1.214-2.3809h4.143q-.1425 2.2381-1.095 3.8809-.9525 1.6429-2.595 2.5238-1.62.881-3.786.881"/>
</svg>
